<?xml version="1.0" standalone="no"?>
<!DOCTYPE svg PUBLIC "-//W3C//DTD SVG 20010904//EN"
 "http://www.w3.org/TR/2001/REC-SVG-20010904/DTD/svg10.dtd">
<svg version="1.0" xmlns="http://www.w3.org/2000/svg"
 width="1136.000000pt" height="852.000000pt" viewBox="0 0 1136.000000 852.000000"
 preserveAspectRatio="xMidYMid meet">
<metadata>
Created by potrace 1.15, written by Peter Selinger 2001-2017
</metadata>
<g transform="translate(0.000000,852.000000) scale(0.100000,-0.100000)"
fill="#000000" stroke="none">
<path d="M3625 8477 c-43 -61 -61 -98 -69 -138 -3 -19 -13 -44 -21 -55 -14
-18 -14 -18 -16 6 -1 21 -3 19 -9 -10 -5 -19 -18 -69 -30 -110 -12 -40 -22
-99 -22 -130 -1 -72 12 -161 22 -155 4 3 7 -3 6 -13 0 -11 7 -18 22 -20 27 -4
27 -2 -3 -68 -26 -56 -48 -164 -34 -164 4 0 1 -12 -6 -27 -13 -25 -13 -28 5
-35 11 -4 21 -11 21 -15 1 -4 3 -24 5 -43 6 -62 14 -85 24 -70 4 7 6 19 3 27
-8 22 15 15 28 -8 8 -17 8 -23 -1 -29 -7 -4 -9 -13 -6 -19 4 -6 4 -17 -1 -23
-4 -7 -8 -42 -9 -78 -1 -36 -9 -94 -18 -130 -28 -110 -38 -161 -33 -166 3 -3
15 0 27 6 20 11 21 10 11 -9 -6 -11 -8 -22 -4 -24 12 -6 65 18 57 26 -4 4 -1
13 5 21 7 8 9 21 5 27 -4 7 -3 9 3 6 10 -6 25 15 27 37 1 5 7 11 15 14 8 3 11
0 7 -7 -4 -6 -4 -11 -1 -11 7 0 90 60 118 84 9 9 17 14 17 11 0 -3 9 4 20 15
11 11 26 20 33 20 18 -1 -90 -96 -148 -130 -70 -42 -44 -37 42 7 39 20 74 45
76 55 3 10 10 18 17 18 6 0 8 -4 5 -10 -3 -6 1 -7 10 -4 11 5 14 2 9 -10 -3
-9 -14 -16 -23 -16 -10 0 -27 -9 -39 -20 -12 -12 -22 -17 -22 -13 0 4 -5 1
-10 -7 -29 -44 18 -61 67 -24 31 24 69 75 44 60 -21 -13 -11 12 12 28 15 12
17 16 5 12 -21 -6 -48 2 -48 16 0 5 8 8 18 6 9 -1 23 1 30 5 7 5 12 4 12 -2 0
-22 18 -10 30 19 7 17 16 30 21 30 5 0 9 6 9 13 0 7 14 32 31 55 43 58 27 52
-37 -14 -44 -46 -54 -53 -54 -35 0 11 -5 21 -11 21 -5 0 -7 5 -4 11 4 6 14 8
22 5 8 -3 11 -1 8 4 -3 6 -1 10 6 10 7 0 10 2 7 5 -3 3 -17 1 -32 -4 -14 -6
-26 -7 -26 -2 0 5 10 12 23 16 14 4 17 8 9 12 -7 3 -23 -4 -35 -15 -12 -11
-33 -23 -47 -27 -14 -4 -41 -21 -61 -36 -20 -16 -41 -29 -47 -29 -5 0 -21 -9
-36 -21 -19 -15 -30 -18 -39 -11 -8 7 -18 6 -31 -4 -34 -25 -40 -15 -10 16 29
29 63 42 47 18 -9 -15 42 16 73 44 12 10 31 20 42 21 12 1 24 7 26 13 3 7 13
10 24 8 11 -3 24 2 33 13 13 17 13 17 -4 4 -9 -8 -20 -11 -24 -8 -8 8 46 71
79 91 14 9 36 32 48 51 12 20 30 40 41 45 10 6 19 17 19 25 0 8 4 15 9 15 4 0
32 33 61 73 74 100 78 106 41 70 -38 -39 -43 -41 -32 -10 10 27 11 30 11 63 0
23 3 25 26 20 15 -4 23 -3 20 3 -3 5 0 20 7 32 13 26 64 79 69 73 2 -2 9 11
16 28 l11 31 -23 -22 c-17 -16 -25 -19 -28 -10 -3 9 -7 7 -11 -5 -4 -11 -3
-15 4 -10 6 3 5 -3 -3 -15 -7 -12 -16 -21 -20 -21 -3 0 -15 -3 -25 -7 -16 -6
-16 -5 -4 10 7 9 19 17 25 17 6 0 11 11 11 25 0 14 -5 25 -12 25 -7 0 -10 7
-7 15 4 8 1 15 -6 15 -7 0 -2 11 12 23 14 13 29 34 33 45 3 12 11 22 16 22 5
0 9 5 9 11 0 5 14 24 31 42 38 39 28 17 -19 -41 -19 -23 -33 -44 -31 -47 4 -3
63 62 139 155 l21 25 -7 -25 c-4 -14 -18 -42 -32 -63 -14 -20 -22 -40 -19 -43
7 -7 67 95 67 114 0 21 30 72 41 72 8 0 8 -4 1 -12 -16 -21 -26 -62 -13 -54
17 11 13 -10 -4 -24 -8 -7 -15 -22 -15 -34 0 -19 4 -21 35 -18 l35 4 -40 -43
c-22 -24 -40 -47 -40 -51 0 -18 20 -6 51 30 61 70 75 66 21 -7 -17 -23 -22
-36 -14 -39 8 -2 1 -17 -18 -39 -17 -19 -29 -41 -26 -48 3 -8 2 -15 -3 -17 -9
-4 -94 -158 -87 -158 3 0 17 21 32 48 44 75 121 169 131 158 3 -3 -12 -25 -34
-49 -43 -46 -69 -87 -56 -87 4 1 17 15 28 33 11 18 26 32 33 32 15 0 53 60 48
77 -1 7 -1 10 1 5 3 -4 9 -4 14 -1 6 3 5 11 -2 20 -9 11 -9 14 1 14 6 0 10 5
8 12 -2 6 4 20 14 30 10 10 16 24 12 29 -4 6 0 16 7 21 11 7 11 11 1 15 -6 2
-9 9 -6 15 4 6 10 5 15 -3 8 -11 15 -8 34 15 13 17 21 34 19 38 -3 5 18 32 48
60 32 31 48 52 40 55 -18 7 -4 23 19 23 11 0 23 8 27 18 9 23 117 112 136 112
8 0 16 7 20 15 3 8 9 14 13 13 13 -4 93 34 93 44 0 11 -14 10 -27 -3 -6 -6
-17 -9 -25 -7 -8 3 -2 11 17 21 28 15 6 16 -359 17 -357 0 -391 -1 -410 -17
-20 -17 -20 -17 -7 0 12 16 10 17 -31 17 -42 0 -47 -3 -72 -40 -14 -22 -29
-40 -32 -40 -4 0 1 10 10 23 37 52 38 57 12 57 -14 0 -30 -8 -36 -17 -11 -17
-11 -17 -6 0 8 25 -32 22 -61 -5 -22 -21 -34 -13 -12 9 8 8 -28 11 -128 11
l-138 1 -30 -42z"/>
<path d="M6070 8506 c0 -8 5 -18 11 -21 5 -4 14 -17 19 -30 6 -16 15 -22 34
-20 22 3 26 -1 26 -21 0 -27 15 -32 24 -9 3 8 12 15 20 15 8 0 17 6 19 13 3 6
6 2 6 -11 1 -14 5 -21 12 -16 6 3 9 14 6 23 -2 11 2 17 13 18 13 1 16 -4 13
-18 -4 -14 0 -19 13 -19 12 0 15 -3 8 -8 -6 -4 -13 -21 -17 -37 -5 -25 -1 -32
19 -42 20 -9 26 -8 34 5 8 15 10 15 10 -3 1 -11 4 -15 6 -8 3 7 0 22 -6 34 -8
15 -9 19 -1 15 6 -4 15 3 20 16 l10 23 1 -25 c1 -24 1 -25 15 -5 8 11 19 25
24 31 6 8 5 16 -2 24 -9 10 -7 11 11 5 16 -4 22 -2 22 8 0 8 7 20 16 27 8 8
19 21 25 31 8 16 1 18 -86 18 -56 0 -95 -3 -95 -9 0 -6 -5 -10 -11 -10 -5 0
-7 5 -4 10 4 6 -33 10 -104 10 -90 0 -111 -3 -111 -14z"/>
<path d="M6472 8434 l-53 -85 21 -26 c13 -17 18 -34 14 -52 -4 -20 -3 -23 5
-11 6 8 11 24 11 36 0 11 12 34 26 50 14 16 33 44 43 63 10 19 21 30 24 25 3
-5 -7 -27 -22 -50 -35 -50 -45 -116 -26 -169 14 -40 17 -38 29 18 6 26 8 27
23 12 12 -12 13 -19 4 -28 -15 -15 -14 -60 1 -75 17 -17 28 -15 28 4 0 11 6
14 20 9 13 -4 20 -2 20 6 0 10 3 10 12 1 9 -9 8 -15 -8 -27 -14 -11 -15 -14
-4 -15 8 0 21 -10 29 -21 10 -18 15 -19 22 -8 7 11 10 9 15 -8 6 -22 29 -37
44 -28 5 3 7 12 3 20 -6 17 0 19 25 6 73 -37 113 -53 126 -48 8 3 17 -1 20 -9
3 -9 11 -12 17 -9 5 4 17 -1 25 -11 14 -17 15 -17 10 -1 -7 24 6 21 36 -7 18
-16 31 -20 41 -14 21 11 62 -6 89 -37 12 -14 28 -25 35 -25 9 0 11 -5 7 -12
-5 -9 -2 -9 9 1 11 9 17 10 17 2 0 -6 7 -11 15 -11 8 0 15 7 15 15 0 30 20 14
21 -17 l1 -33 8 30 c4 17 8 23 9 15 1 -12 3 -13 10 -1 14 22 20 -3 11 -45 -12
-50 -12 -56 0 -49 6 3 10 19 10 36 0 45 17 34 24 -15 6 -35 2 -54 -13 -85 -14
-26 -17 -42 -10 -46 5 -4 6 -12 2 -18 -5 -7 -6 -30 -3 -52 l6 -40 7 55 c9 68
40 161 45 138 2 -11 9 -15 19 -11 12 5 15 2 10 -10 -12 -31 11 -27 33 6 12 17
19 23 15 12 -16 -46 -18 -58 -7 -51 7 4 16 -9 23 -36 l12 -43 8 30 c3 17 8 26
9 20 1 -5 3 -14 5 -20 1 -5 3 -23 4 -40 3 -29 3 -30 10 -5 l7 25 8 -23 c4 -12
12 -20 17 -16 13 8 -1 -79 -14 -88 -14 -9 17 -38 40 -38 33 0 23 -37 -12 -45
l-30 -7 25 -8 c21 -6 22 -8 8 -14 -26 -11 -10 -36 23 -36 30 0 38 17 18 37 -8
8 -8 13 1 18 6 4 17 -1 24 -11 10 -13 21 -16 44 -11 35 7 52 -16 24 -32 -15
-9 -14 -10 5 -11 12 0 24 4 27 9 7 10 56 2 56 -10 0 -4 -16 -13 -35 -20 -19
-7 -35 -17 -35 -22 0 -5 8 -6 18 -2 38 15 72 17 72 6 0 -7 5 -9 11 -6 6 4 8 9
6 12 -5 4 51 63 60 63 2 0 14 -5 26 -11 20 -9 19 -8 -3 11 -22 20 -23 23 -7
31 9 6 17 16 17 24 0 8 9 19 20 25 11 6 20 16 20 23 0 7 9 18 20 25 11 7 20
18 20 25 1 13 34 57 44 57 3 0 6 -8 6 -17 1 -17 1 -17 14 0 11 13 16 15 24 5
17 -22 50 -110 63 -168 6 -30 17 -77 24 -105 7 -27 19 -78 26 -112 7 -35 17
-63 22 -63 4 0 5 -4 2 -10 -7 -12 15 -90 26 -90 4 0 5 -8 2 -19 -3 -10 0 -22
6 -25 6 -4 11 -20 11 -36 0 -16 5 -32 10 -35 6 -3 10 -20 10 -36 0 -17 5 -40
11 -51 6 -12 12 -50 12 -85 0 -35 3 -59 7 -54 3 6 5 -11 4 -38 0 -26 -5 -55
-10 -62 -5 -8 -7 -22 -6 -32 2 -10 -1 -24 -7 -31 -6 -7 -8 -23 -5 -37 12 -53
9 -84 -10 -98 -15 -12 -19 -12 -27 0 -7 11 -9 11 -9 -3 0 -9 -3 -23 -6 -31 -3
-10 3 -17 20 -21 23 -6 26 -12 26 -46 0 -33 -3 -40 -20 -40 -17 0 -19 -3 -8
-19 10 -17 8 -23 -13 -43 -20 -19 -23 -27 -14 -44 5 -11 15 -19 22 -17 19 7
23 -12 7 -41 -19 -38 -18 -49 6 -41 11 4 20 2 20 -4 0 -6 -9 -11 -20 -11 -12
0 -21 -7 -22 -17 0 -10 -2 -23 -2 -30 -2 -19 -16 -28 -16 -10 0 10 -4 17 -10
17 -5 0 -10 -4 -10 -9 0 -15 31 -42 41 -36 5 3 24 3 44 -1 25 -4 35 -11 35
-25 0 -24 -9 -24 -26 -1 -12 16 -15 15 -40 -13 -15 -16 -24 -22 -21 -13 3 9 0
19 -9 22 -10 4 -14 -3 -14 -28 0 -19 -6 -37 -12 -39 -7 -3 2 -3 21 0 l33 6
-23 -27 c-17 -20 -22 -36 -20 -66 2 -34 0 -40 -17 -40 -18 0 -20 -6 -19 -55 1
-61 7 -67 27 -30 10 19 10 28 1 38 -9 12 -7 16 14 19 30 6 33 -11 9 -48 -9
-13 -13 -28 -9 -32 4 -4 10 -1 12 6 4 10 8 10 19 1 19 -16 29 -5 11 13 -12 11
-12 23 -3 61 12 53 26 56 38 9 9 -34 15 -38 38 -21 13 9 12 10 -2 5 -20 -6
-25 10 -5 17 9 3 9 11 1 33 -6 17 -7 39 -3 49 6 16 8 17 8 3 1 -9 4 -18 9 -20
14 -6 42 -66 42 -91 0 -20 -4 -23 -24 -20 -26 5 -46 -15 -26 -27 7 -4 10 -12
6 -18 -3 -5 10 -13 29 -16 42 -8 46 -23 8 -28 -34 -4 -31 -24 3 -21 22 2 24
-2 24 -42 0 -25 5 -45 13 -48 9 -4 9 -6 -1 -6 -7 -1 -10 -6 -7 -11 3 -6 6 -39
6 -75 0 -36 5 -65 10 -65 6 0 5 -9 -2 -21 -6 -12 -9 -37 -6 -55 3 -19 1 -36
-4 -39 -14 -9 -11 -25 6 -25 8 0 17 11 21 25 3 14 9 25 13 25 12 0 30 64 27
93 -2 16 -8 33 -15 40 -6 6 -11 17 -11 25 0 12 2 12 17 1 15 -13 16 -12 11 9
-5 19 -3 21 18 18 19 -4 25 1 30 20 3 13 12 24 20 24 14 0 17 12 15 65 -1 17
3 44 8 60 10 30 10 30 10 -10 -1 -62 0 -75 9 -75 10 0 45 79 43 96 -1 7 5 14
14 18 19 7 20 70 1 89 -17 17 -10 57 10 57 9 0 13 12 13 38 0 20 0 64 1 97 0
33 -1 85 -4 115 l-5 55 14 -44 c8 -25 20 -48 27 -52 6 -4 11 -22 11 -40 0 -32
1 -32 11 -9 6 14 14 28 19 31 5 4 8 17 6 30 -1 13 1 34 5 46 5 15 0 39 -13 69
-25 55 -26 71 -6 54 9 -8 15 -9 15 -2 0 6 -4 13 -9 16 -5 3 -7 14 -4 24 2 10
-7 42 -21 72 -26 55 -35 117 -16 105 6 -4 8 -10 5 -15 -3 -4 1 -13 9 -19 8 -6
11 -22 8 -37 -3 -14 0 -29 5 -33 5 -3 15 -15 21 -26 11 -20 11 -20 12 2 0 12
-4 25 -10 28 -12 8 -13 25 -2 25 5 0 14 -10 20 -22 7 -16 11 -18 11 -7 1 9 -7
27 -18 40 -10 13 -22 35 -26 49 -4 14 -21 39 -37 57 -18 19 -36 53 -44 84 -17
64 -10 78 7 17 8 -27 30 -60 57 -87 34 -34 43 -39 37 -21 -5 15 -4 20 4 16 6
-4 11 -14 11 -22 0 -8 4 -14 10 -14 5 0 6 8 3 18 -8 21 -29 43 -40 42 -4 0 -9
11 -11 24 -2 14 -14 34 -26 43 -22 17 -46 54 -46 68 0 4 15 -11 33 -33 17 -23
38 -41 45 -41 7 -1 10 4 7 9 -3 6 0 10 7 10 9 0 10 3 2 8 -11 7 -60 105 -103
207 -26 62 -2 34 39 -45 16 -30 47 -75 70 -100 41 -44 42 -44 35 -15 -4 17 -7
38 -7 48 0 9 -4 17 -9 17 -6 0 -9 6 -6 13 2 6 0 26 -6 42 -5 17 -10 39 -11 50
-2 11 -10 37 -20 58 -15 35 -15 39 0 54 11 11 14 26 10 46 -4 17 -1 36 6 44 9
11 7 29 -12 82 -19 56 -28 70 -54 81 -17 7 -34 12 -38 11 -4 0 -12 8 -18 20
-11 20 -11 20 30 -1 l42 -21 -8 33 c-4 18 -7 38 -6 43 0 6 3 33 6 60 3 33 0
60 -8 77 -8 14 -12 39 -9 54 4 23 2 26 -6 14 -9 -13 -11 -13 -11 0 0 8 -9 32
-20 53 -11 21 -20 54 -20 75 1 20 -2 62 -5 92 -4 30 -8 67 -8 83 -1 18 -6 26
-15 22 -7 -3 -10 0 -7 6 4 5 1 16 -5 24 -9 11 -9 15 -1 15 7 0 2 10 -9 22 -21
22 -24 77 -7 105 9 14 -14 63 -37 82 -21 18 -22 65 -1 57 20 -7 19 4 -1 19
-13 9 -14 16 -7 29 13 23 1 90 -28 156 -15 35 -42 68 -89 110 -37 33 -74 60
-81 60 -12 0 -62 14 -105 30 -11 4 -28 4 -37 -1 -12 -7 -19 -4 -26 9 -6 11 -8
22 -5 25 8 8 -74 20 -86 12 -6 -3 -8 -11 -4 -17 4 -6 -8 -9 -32 -8 -22 1 -43
1 -49 0 -5 -1 -14 -1 -20 0 -5 1 1 -10 14 -24 25 -27 37 -34 26 -16 -7 11 9
11 45 0 25 -8 24 -8 -5 -9 -23 -1 -27 -3 -15 -11 13 -8 13 -10 -1 -10 -9 0
-28 10 -43 21 -19 15 -31 18 -38 11 -8 -8 -7 -15 3 -24 27 -24 117 -68 140
-68 22 -1 22 -2 6 -11 -14 -8 -28 -6 -57 10 -22 11 -40 17 -40 13 0 -4 -4 -1
-9 7 -8 12 -12 12 -25 2 -12 -10 -18 -9 -35 8 -12 12 -16 21 -10 21 23 0 -11
28 -44 35 -28 7 -29 9 -9 12 20 4 17 8 -28 44 -41 32 -57 39 -94 39 -26 0 -46
-5 -49 -12 -4 -9 -6 -10 -6 -1 -1 8 -49 12 -178 12 l-178 1 43 -38 c23 -20 42
-41 42 -45 0 -5 -24 12 -52 37 -53 46 -53 46 -128 46 -60 -1 -71 -3 -55 -12
11 -6 32 -22 48 -36 15 -14 27 -23 27 -19 0 3 -10 15 -22 27 -32 29 -18 25 51
-16 34 -20 58 -41 54 -47 -3 -6 -1 -7 6 -3 6 4 25 -3 42 -14 16 -12 32 -20 35
-17 2 2 -7 12 -21 21 -14 9 -25 21 -25 26 0 25 55 -30 102 -102 37 -58 54 -75
60 -66 7 9 8 6 5 -9 -3 -14 0 -23 7 -23 7 0 13 -12 13 -28 0 -32 38 -89 65
-98 15 -4 17 -9 7 -20 -6 -8 -18 -14 -25 -14 -8 0 -14 -6 -14 -12 -1 -8 -7 -5
-15 6 -8 10 -12 22 -10 26 3 4 -4 15 -14 24 -17 16 -18 14 -16 -32 1 -26 5
-53 8 -59 4 -7 3 -14 -2 -17 -13 -8 -25 29 -27 79 -2 62 -15 104 -37 120 -13
9 -20 25 -19 43 0 22 -11 42 -43 75 -47 49 -133 100 -116 69 5 -10 26 -32 45
-50 20 -19 34 -37 32 -41 -3 -4 8 -26 24 -50 30 -43 45 -94 38 -126 -1 -10
-12 9 -23 41 -23 69 -50 112 -108 172 -58 60 -124 106 -175 122 -37 12 -41 15
-29 28 12 12 20 11 56 -7 54 -28 53 -19 -2 14 -41 23 -123 38 -87 15 24 -15 5
-21 -23 -7 -37 19 -307 23 -319 5 -6 -10 -8 -10 -8 0 0 8 -17 12 -49 12 -59 0
-81 -7 -75 -24 3 -7 -6 -21 -18 -31 -13 -11 -17 -13 -10 -5 23 26 12 34 -15 9
l-27 -24 17 27 c23 37 21 45 -4 22 -22 -19 -22 -19 -10 4 6 12 8 22 4 22 -5 0
-32 -39 -61 -86z"/>
<path d="M3788 6903 c-64 -71 -162 -143 -193 -143 -6 0 -21 -13 -33 -30 -13
-16 -29 -30 -37 -30 -7 0 -27 -12 -44 -26 -27 -23 -30 -30 -25 -62 3 -21 6
-50 5 -65 0 -15 4 -25 9 -22 6 4 10 13 10 21 0 21 40 93 71 129 15 17 39 44
53 60 l27 30 -24 -40 c-13 -22 -27 -47 -32 -55 -4 -8 8 2 29 23 20 20 42 37
49 37 6 0 -9 -21 -34 -47 -76 -79 -114 -124 -121 -143 -12 -32 14 -13 52 36
19 25 56 70 83 100 45 52 58 72 37 59 -26 -16 -4 17 51 75 59 63 104 120 96
120 -2 0 -15 -12 -29 -27z"/>
<path d="M3694 6603 c-71 -87 -67 -84 -76 -70 -6 9 -12 8 -22 -5 -7 -10 -16
-15 -20 -11 -4 4 -4 0 0 -10 5 -13 2 -16 -10 -11 -9 4 -18 0 -22 -9 -3 -9 -12
-13 -20 -10 -8 3 -14 0 -14 -7 0 -6 5 -8 10 -5 22 13 8 -11 -17 -31 -16 -13
-24 -26 -19 -31 5 -4 11 -3 13 4 2 7 10 10 18 7 15 -6 29 13 30 41 0 12 8 21
20 23 11 2 26 11 32 20 7 8 15 13 19 10 3 -4 -13 -30 -35 -58 -41 -52 -49 -70
-31 -70 13 0 50 37 50 50 0 6 5 10 11 10 13 0 119 89 119 100 0 11 -37 5 -54
-10 -22 -17 -31 -7 -11 13 8 9 15 19 15 23 0 5 14 23 32 41 17 18 29 35 26 38
-3 4 -23 -15 -44 -42z"/>
<path d="M7765 6147 c11 -9 16 -17 11 -17 -5 0 -3 -7 4 -15 9 -11 23 -14 45
-9 19 3 35 1 39 -5 4 -6 18 -11 32 -11 13 0 24 -4 24 -10 0 -5 10 -18 22 -30
l22 -20 -34 0 -33 0 34 -23 c19 -13 33 -31 33 -39 -1 -10 8 -18 22 -21 13 -2
21 0 18 4 -9 15 7 10 42 -12 34 -21 47 -13 19 11 -9 7 -14 19 -11 25 2 7 -13
23 -35 36 -21 13 -39 27 -39 32 0 11 8 9 36 -9 13 -9 27 -14 31 -11 3 4 -5 11
-19 16 -13 5 -37 25 -52 46 -24 32 -32 35 -59 31 -18 -3 -25 -3 -16 2 26 11 1
27 -46 28 -22 0 -56 4 -75 9 -33 7 -34 7 -15 -8z"/>
<path d="M7370 6122 c-14 -9 -26 -20 -28 -24 -2 -5 -15 -8 -30 -8 -23 0 -24
-1 -9 -12 16 -12 16 -14 -3 -26 -14 -8 -20 -9 -20 -1 0 6 -8 2 -17 -9 -10 -12
-30 -24 -45 -28 -42 -10 -38 28 4 44 17 6 29 15 25 18 -4 4 -13 1 -22 -6 -9
-7 -18 -10 -22 -6 -9 9 -53 -35 -53 -54 0 -22 -69 -53 -87 -38 -7 6 -17 7 -21
3 -4 -4 -1 -10 6 -12 6 -3 12 -9 12 -15 0 -6 -7 -8 -15 -5 -8 4 -17 2 -20 -3
-4 -6 -1 -10 4 -10 6 0 11 -7 11 -16 0 -14 -3 -14 -15 -4 -12 10 -15 10 -15
-3 0 -8 5 -17 12 -19 9 -3 9 -6 0 -12 -7 -4 -12 -3 -12 3 0 5 -13 3 -30 -5
-16 -9 -30 -20 -30 -25 0 -6 -4 -8 -8 -5 -4 2 -9 -4 -9 -15 -1 -12 5 -19 15
-19 13 -1 11 -4 -7 -14 -13 -7 -38 -12 -55 -10 -17 1 -25 0 -18 -3 19 -7 14
-23 -7 -23 -17 0 -18 -4 -11 -29 6 -23 4 -31 -12 -42 -21 -14 -48 -67 -48 -93
0 -24 29 -27 63 -6 37 23 54 26 38 7 -6 -8 -8 -17 -4 -20 3 -4 -2 -9 -11 -13
-9 -3 -16 -16 -16 -29 0 -20 6 -23 65 -27 86 -7 130 2 130 27 0 26 14 47 45
68 42 29 57 22 70 -33 11 -46 14 -50 41 -50 16 0 41 -7 54 -16 14 -9 25 -13
25 -9 0 4 7 2 15 -5 17 -14 104 -22 147 -13 38 7 68 54 68 105 0 20 4 39 8 42
16 10 88 -32 105 -62 22 -40 22 -46 -8 -62 -18 -10 -22 -16 -13 -22 7 -4 21
-5 31 -2 30 9 119 -18 112 -34 -4 -10 0 -12 11 -8 8 3 24 6 35 6 26 0 24 18
-3 23 l-23 4 23 8 c23 8 29 21 13 27 -6 2 -6 17 -1 38 8 34 10 35 14 8 1 -7 7
-12 13 -11 6 1 16 -11 23 -28 19 -45 32 -47 24 -2 -12 64 -48 150 -79 188 -32
38 -81 66 -160 90 -74 22 -87 18 -29 -9 60 -28 148 -111 140 -132 -3 -8 -5
-17 -5 -20 1 -11 -24 -22 -37 -17 -7 3 -12 10 -11 16 1 6 -7 12 -18 13 -20 1
-119 40 -176 69 -53 26 -272 11 -337 -24 -29 -15 -32 -14 -32 13 0 24 23 41
41 31 5 -4 6 0 3 8 -11 31 49 60 176 85 l45 9 -50 7 c-59 9 -105 25 -105 37 0
5 5 9 11 9 5 0 7 5 4 10 -4 7 2 9 19 4 21 -5 25 -3 20 10 -4 12 0 16 15 16 12
0 20 6 19 12 -2 7 8 14 21 16 13 2 31 10 38 18 8 8 20 14 28 14 7 0 16 7 19
16 5 13 16 14 60 9 48 -6 57 -4 77 16 l22 22 -34 -6 c-19 -3 -44 -9 -56 -13
-14 -4 -23 -2 -23 5 0 6 11 11 23 11 13 0 39 8 58 17 l34 17 -47 9 c-52 10
-61 22 -25 37 17 8 13 9 -19 4 -25 -3 -45 -1 -49 5 -10 17 -67 12 -95 -7z"/>
<path d="M5470 5763 c-19 -3 -39 -8 -45 -13 -5 -4 -30 -11 -55 -15 -25 -4 -62
-18 -82 -31 -21 -13 -41 -24 -46 -24 -16 0 -82 -62 -83 -78 0 -15 -1 -14 -8 1
-6 18 -8 18 -21 2 -11 -14 -11 -18 3 -32 15 -15 19 -13 54 24 37 40 71 63 92
63 6 0 14 -15 19 -32 8 -31 11 -33 53 -33 38 0 44 -3 47 -22 3 -19 -1 -23 -25
-24 l-28 0 25 -10 c14 -6 54 -13 89 -16 68 -5 86 4 75 41 -5 15 -3 18 11 12
27 -10 39 5 16 21 -16 10 -21 25 -21 57 0 41 1 42 34 44 19 1 37 -2 41 -8 10
-17 25 -11 25 10 0 31 38 25 95 -15 28 -19 58 -38 68 -41 9 -4 17 -10 17 -15
0 -9 45 -31 95 -47 20 -6 29 -15 27 -26 -4 -21 27 -21 43 1 10 13 10 19 -1 30
-7 7 -20 13 -28 13 -9 0 -16 4 -16 10 0 12 -77 33 -92 24 -7 -4 -8 -3 -4 4 4
7 1 12 -8 12 -9 0 -24 8 -34 18 -60 57 -232 107 -332 95z"/>
<path d="M8265 5180 c-3 -6 0 -10 7 -10 29 0 -18 -20 -52 -21 -31 -2 -32 -2
-7 -6 24 -4 26 -7 16 -19 -11 -13 -9 -14 13 -9 14 4 28 3 31 -2 3 -5 -2 -9
-11 -9 -58 0 -74 -4 -64 -17 12 -14 -3 -40 -28 -50 -9 -3 -4 -6 13 -6 34 -1
36 -18 2 -27 -20 -5 -23 -11 -20 -37 5 -40 15 -87 22 -107 3 -8 5 -23 4 -33
-1 -9 8 -30 20 -45 l22 -27 -6 33 c-4 18 -2 32 3 32 6 0 10 -4 10 -8 0 -5 10
-14 23 -21 l22 -12 -22 5 c-27 5 -29 0 -7 -21 19 -19 30 -9 38 38 5 26 2 40
-9 49 -10 8 -15 9 -15 1 0 -6 -5 -11 -10 -11 -6 0 -3 12 7 27 14 22 19 24 21
10 2 -9 10 -17 18 -17 17 0 18 12 2 28 -9 9 -9 12 0 12 7 0 12 8 12 18 0 10 5
23 11 29 6 6 12 31 14 56 1 24 8 53 14 65 7 14 8 23 1 27 -5 3 -10 15 -10 26
0 10 -7 19 -15 19 -8 0 -15 -8 -15 -17 0 -11 -3 -14 -8 -7 -4 6 -16 14 -27 19
-18 7 -17 9 9 14 16 3 31 12 32 19 1 7 0 8 -3 2 -3 -7 -13 -6 -28 4 -15 10
-26 12 -30 6z"/>
<path d="M6802 4306 c-24 -12 -40 -25 -36 -29 4 -4 0 -7 -9 -7 -9 0 -17 -4
-17 -10 0 -5 7 -10 15 -10 8 0 15 -6 15 -13 0 -9 -10 -12 -30 -9 -36 5 -83 -5
-76 -17 3 -5 -22 -16 -57 -26 -55 -15 -75 -19 -124 -24 -7 0 -12 -11 -10 -23
2 -20 -2 -23 -28 -21 -16 1 -33 -3 -37 -10 -4 -6 -10 -8 -14 -4 -4 4 -2 13 4
19 7 7 12 19 12 27 0 11 -4 10 -15 -5 -15 -18 -15 -18 -13 10 3 26 -2 32 -46
54 -101 50 -250 75 -291 48 -14 -9 -25 -23 -25 -30 0 -18 78 -50 94 -37 6 5
22 9 36 9 14 0 30 1 35 3 6 1 22 -3 36 -9 15 -6 38 -9 53 -8 14 2 26 -1 26 -5
0 -5 14 -9 31 -9 21 0 30 -4 26 -12 -2 -7 -8 -24 -12 -38 -7 -21 -6 -23 7 -13
11 10 18 8 31 -7 9 -11 27 -20 40 -20 24 0 67 -25 81 -48 7 -12 10 -12 17 -1
8 12 11 12 19 -1 6 -10 10 -11 10 -2 0 6 7 12 16 12 14 0 14 -1 0 -16 -9 -8
-16 -21 -16 -27 0 -8 4 -7 9 2 10 16 81 43 81 31 0 -5 10 -11 23 -13 l22 -4
-22 -2 c-34 -2 -28 -21 7 -21 19 0 30 5 30 14 0 17 50 30 82 22 l23 -6 -22 11
c-33 17 -28 26 12 21 21 -3 35 -10 35 -18 0 -24 14 -16 28 16 10 21 21 30 38
30 16 0 28 8 36 25 7 17 19 25 36 25 17 0 23 4 19 14 -4 10 6 23 27 36 40 24
70 66 62 85 -4 11 -25 14 -84 12 -76 -2 -81 0 -105 26 -30 31 -29 31 -85 3z"/>
<path d="M3790 4086 c0 -19 -4 -38 -10 -41 -6 -3 -10 4 -10 17 0 13 -5 30 -10
38 -11 16 -4 -116 7 -155 10 -32 71 -107 105 -128 29 -18 33 -18 44 -2 7 9 15
64 19 122 7 96 6 108 -11 120 -10 7 -24 13 -31 13 -8 0 -31 11 -51 25 -48 32
-52 32 -52 -9z"/>
<path d="M7895 4110 c-13 -20 -19 -124 -7 -116 8 5 10 -4 7 -28 -3 -25 0 -36
11 -40 11 -4 18 1 21 14 8 31 30 23 37 -13 8 -41 -2 -94 -23 -126 -9 -14 -14
-35 -13 -48 3 -18 0 -22 -13 -17 -17 7 -17 27 1 69 7 18 6 18 -9 6 -9 -7 -17
-20 -17 -27 0 -8 -6 -14 -14 -14 -8 0 -16 -6 -19 -12 -5 -13 -6 -11 -21 35 -3
9 -13 17 -22 17 -14 0 -14 -3 -4 -15 7 -9 10 -18 7 -22 -4 -3 -2 -12 4 -19 12
-14 5 -19 -35 -26 -11 -2 -21 -9 -22 -16 -1 -7 0 -8 3 -2 2 5 9 10 14 10 12 0
12 -37 0 -45 -6 -3 -6 -18 0 -38 12 -43 11 -50 -4 -44 -24 9 -15 -65 11 -91
12 -13 22 -27 22 -32 0 -21 18 -8 23 16 3 18 1 24 -9 20 -17 -6 -17 -1 -3 25
5 11 14 17 18 14 5 -2 14 2 21 10 11 13 8 14 -20 8 l-33 -6 7 39 c4 21 14 51
22 66 8 15 14 35 15 45 0 12 4 8 11 -10 7 -21 7 -32 -1 -40 -21 -21 -13 -45
14 -43 14 0 25 6 25 12 0 6 11 12 25 12 22 0 24 -4 18 -27 -4 -14 -8 -42 -8
-63 0 -28 -6 -40 -28 -55 -30 -20 -32 -48 -3 -48 29 0 30 -20 2 -34 -15 -8
-22 -19 -19 -31 3 -10 -2 -20 -12 -24 -13 -4 -15 -13 -10 -36 4 -19 3 -30 -4
-30 -6 0 -11 8 -11 18 0 14 -2 15 -10 2 -5 -8 -10 -12 -11 -7 -1 4 -2 10 -4
15 -1 4 -5 21 -10 37 -4 17 -13 34 -19 38 -7 5 -3 6 8 3 15 -5 17 -2 12 16 -3
13 -6 28 -6 35 0 6 -13 21 -29 32 l-28 20 2 -37 c1 -20 6 -54 10 -75 6 -29 4
-37 -6 -35 -10 2 -14 -11 -16 -47 -1 -27 -9 -69 -17 -92 -8 -23 -13 -56 -11
-72 2 -17 -1 -31 -6 -31 -6 0 -9 -6 -6 -12 2 -7 9 -12 14 -11 5 1 7 -12 5 -28
-5 -35 -23 -34 -33 2 -8 29 -10 26 -12 -28 -1 -22 1 -39 5 -37 13 9 -5 -30
-24 -51 -22 -23 -48 -73 -48 -90 0 -7 -7 -15 -15 -19 -8 -3 -15 -1 -15 5 0 16
-25 5 -26 -12 -2 -32 -5 -37 -25 -42 -14 -4 -18 -10 -13 -19 6 -11 5 -11 -8 0
-13 10 -17 10 -22 -4 -11 -28 -6 -54 9 -54 8 0 15 -6 15 -14 0 -8 5 -16 12
-18 6 -2 8 -10 4 -16 -4 -7 -13 -9 -19 -5 -7 4 -22 6 -35 4 -20 -2 -22 1 -17
26 5 21 4 24 -4 13 -6 -8 -11 -26 -11 -39 0 -18 -4 -22 -18 -19 -15 4 -18 1
-14 -18 4 -22 -4 -29 -29 -26 -9 2 -47 -34 -82 -77 -19 -23 -33 -32 -47 -28
-15 4 -20 0 -20 -14 0 -10 -8 -23 -19 -28 -10 -6 -21 -18 -25 -26 -3 -9 -2
-13 4 -10 13 8 13 -1 -1 -27 -9 -16 -13 -18 -19 -7 -7 10 -11 10 -24 0 -11 -9
-13 -19 -5 -37 12 -33 12 -34 -6 -34 -8 0 -15 5 -15 10 0 15 -30 12 -36 -4 -3
-8 -12 -12 -20 -9 -8 3 -14 -1 -14 -10 0 -9 8 -18 18 -21 14 -4 14 -5 -3 -4
-38 1 -45 -2 -45 -18 0 -9 -9 -18 -21 -21 -11 -3 -18 -11 -15 -18 7 -20 -30
-25 -54 -8 -19 14 -21 13 -18 -2 2 -10 -3 -20 -9 -22 -8 -3 -13 5 -14 19 -1
18 -2 19 -6 5 -3 -10 -10 -16 -17 -14 -7 3 -18 -7 -24 -23 -7 -15 -23 -32 -36
-38 -13 -6 -27 -20 -31 -31 -5 -16 -12 -20 -31 -15 -14 4 -24 2 -24 -5 0 -6
-7 -11 -15 -11 -9 0 -18 -6 -21 -13 -3 -8 -23 -13 -57 -12 -34 0 -52 -4 -53
-13 -3 -25 -6 -27 -14 -7 -7 17 -9 17 -9 3 -1 -10 -8 -18 -16 -18 -8 0 -15 -5
-15 -11 0 -7 -9 -9 -23 -5 -13 3 -32 -1 -45 -9 -13 -10 -23 -12 -27 -5 -10 15
-23 12 -28 -7 -4 -17 -5 -17 -6 0 -1 22 -17 22 -30 -1 -10 -16 -10 -16 -11 2
0 11 -5 16 -14 13 -7 -3 -19 0 -25 6 -8 8 -15 6 -25 -8 -13 -17 -14 -17 -27
11 -12 24 -20 29 -49 28 -20 0 -40 6 -46 14 -7 10 -19 13 -38 8 -27 -7 -27
-26 0 -26 8 0 14 -5 14 -10 0 -11 -74 -3 -102 12 -11 5 -18 5 -18 0 0 -5 -11
-9 -25 -9 -15 0 -25 5 -25 13 0 12 -4 12 -23 0 -20 -13 -26 -14 -50 -1 -14 7
-29 10 -32 6 -9 -16 -55 1 -55 20 0 23 -8 24 -32 2 -17 -15 -18 -15 -18 5 0
17 -5 21 -30 19 -16 -1 -30 -8 -30 -14 0 -7 -7 -13 -16 -13 -11 0 -14 6 -9 21
6 18 4 20 -14 14 -13 -4 -21 -2 -21 5 0 7 -7 10 -15 6 -8 -3 -26 -1 -40 4 -19
7 -25 6 -25 -5 0 -7 9 -16 19 -20 11 -3 22 -13 25 -21 3 -8 1 -12 -4 -9 -5 3
-23 -1 -39 -10 -20 -10 -32 -11 -36 -4 -5 7 -11 6 -21 -2 -11 -9 -14 -8 -14 5
0 12 -10 16 -39 16 -22 0 -43 5 -46 10 -4 6 -11 8 -16 5 -19 -12 -28 5 -18 37
l9 31 -20 -21 c-11 -12 -20 -25 -20 -31 0 -14 -32 -23 -44 -11 -7 7 -5 10 6
10 11 0 15 8 14 25 -1 20 -6 25 -26 24 -14 0 -19 -3 -12 -6 17 -6 15 -30 -2
-36 -11 -4 -13 -1 -9 10 5 13 2 15 -11 10 -20 -8 -66 19 -66 38 0 7 -7 16 -16
19 -26 10 -30 6 -11 -9 12 -8 17 -20 13 -32 -7 -23 36 -69 55 -58 7 5 10 3 7
-6 -3 -8 -13 -13 -22 -13 -18 2 -20 -4 -7 -25 5 -7 14 -10 20 -7 6 4 11 0 11
-8 0 -9 5 -16 11 -16 7 0 8 7 4 18 -11 28 -11 34 3 39 8 3 10 -1 6 -14 -6 -17
-6 -17 8 1 14 17 15 17 31 -8 19 -28 23 -66 7 -66 -5 0 -10 13 -10 30 0 20 -4
28 -13 24 -8 -3 -13 -15 -12 -27 1 -16 12 -25 41 -35 21 -7 45 -19 54 -27 14
-13 19 -15 38 -15 4 0 0 -5 -8 -11 -11 -8 -12 -12 -2 -16 7 -2 19 -11 26 -19
8 -8 21 -14 29 -14 8 0 18 -7 21 -16 5 -14 9 -14 23 -3 15 12 16 12 10 -4 -4
-10 -7 -21 -7 -23 0 -2 -6 -4 -14 -4 -7 0 -19 -7 -26 -15 -9 -10 -9 -15 -1
-15 6 0 11 5 11 10 0 19 25 10 35 -12 7 -15 23 -25 50 -31 22 -4 50 -10 63
-13 17 -3 22 -10 17 -23 -6 -20 16 -44 37 -39 7 2 15 -1 16 -7 1 -5 -9 -11
-23 -13 -35 -5 -31 -18 6 -26 42 -8 60 -6 29 4 -22 7 -21 8 13 9 20 1 37 -3
37 -9 0 -5 6 -10 14 -10 8 0 18 -5 22 -11 4 -7 -5 -10 -27 -7 -26 2 -34 -1
-37 -14 -2 -10 1 -18 7 -18 6 0 11 6 11 13 0 9 3 8 9 -2 6 -9 11 -10 15 -2 9
14 73 15 81 1 3 -6 -1 -7 -12 -4 -15 4 -14 3 2 -7 11 -7 27 -13 35 -14 9 0 14
-8 13 -21 -3 -26 30 -38 61 -22 15 8 21 8 24 -1 6 -17 42 -13 42 4 0 8 5 15
10 15 6 0 10 -9 10 -20 0 -13 7 -20 20 -20 11 0 20 -7 20 -15 0 -8 5 -15 10
-15 6 0 10 7 10 15 0 19 20 19 56 0 16 -8 45 -15 64 -16 32 -1 33 -2 10 -8
-14 -4 -36 -4 -49 1 -26 9 -51 4 -51 -10 0 -5 29 -9 65 -8 47 1 65 -3 65 -12
0 -7 14 -15 31 -19 17 -3 36 -14 42 -24 7 -11 20 -19 30 -19 10 0 15 -5 12
-11 -4 -6 -9 -8 -12 -5 -9 9 -33 -22 -33 -43 0 -23 10 -27 26 -11 7 7 19 6 37
-2 32 -15 36 -33 6 -25 -27 7 -68 -11 -96 -42 -12 -14 -25 -22 -29 -18 -4 4
-2 7 4 7 7 0 12 5 12 10 0 19 -28 10 -33 -10 -3 -13 0 -20 10 -20 8 0 11 -4 8
-10 -3 -5 -17 -10 -30 -10 -13 0 -36 -5 -52 -11 l-28 -11 25 -10 c20 -7 22
-11 10 -18 -8 -5 -11 -12 -7 -16 3 -4 13 -2 20 4 11 9 19 6 36 -14 18 -21 20
-28 10 -35 -20 -12 -8 -18 47 -23 63 -5 62 -5 42 -17 -20 -11 -25 -33 -5 -26
6 2 19 -1 27 -8 8 -7 26 -16 40 -19 19 -6 21 -5 10 3 -22 15 1 33 44 35 35 1
47 -17 14 -19 -35 -3 -30 -15 5 -15 21 0 37 5 37 10 0 6 11 10 24 10 14 0 28
5 31 10 12 20 26 10 15 -11 -15 -27 -4 -38 13 -15 10 14 27 18 77 18 49 0 70
5 92 21 20 15 25 24 18 31 -8 8 -13 7 -19 -3 -10 -16 -41 -8 -41 10 0 6 7 8
16 5 9 -3 21 -3 27 1 7 5 26 8 42 8 23 0 30 5 31 20 1 11 2 24 3 28 1 4 10 3
20 -2 14 -8 22 -7 31 4 7 8 19 15 27 15 8 0 21 7 29 15 18 17 33 19 53 6 12
-8 12 -12 2 -25 -11 -13 -11 -16 3 -16 9 0 16 4 16 10 0 5 10 18 22 30 12 11
18 23 14 27 -4 5 -14 -1 -22 -11 -7 -11 -17 -16 -21 -12 -4 4 -2 10 4 14 6 4
11 16 10 27 -2 25 26 23 64 -5 25 -18 26 -18 40 1 7 10 23 19 35 19 17 0 23 8
28 35 5 25 14 39 32 45 16 6 24 17 24 33 0 26 25 83 41 93 5 3 1 -18 -10 -47
-14 -36 -17 -57 -11 -70 11 -19 4 -49 -11 -49 -5 0 -9 -7 -9 -15 0 -8 7 -15
15 -15 8 0 15 9 15 19 0 10 7 22 16 25 8 3 13 10 9 15 -7 12 47 69 62 64 6 -2
23 31 39 74 16 43 30 70 32 60 5 -27 22 -9 23 26 1 24 3 26 6 10 6 -33 23 -28
23 7 0 50 20 33 21 -17 1 -33 3 -41 7 -25 9 30 26 30 30 0 2 -13 12 -31 22
-40 17 -16 17 -22 4 -95 -8 -43 -26 -103 -41 -133 -32 -68 -84 -150 -95 -150
-4 0 -8 -11 -8 -25 0 -18 -4 -23 -15 -18 -9 3 -15 2 -14 -3 2 -5 -5 -26 -14
-48 -9 -21 -17 -41 -17 -43 0 -11 -46 -53 -58 -53 -7 0 -10 -5 -7 -10 4 -6 -7
-24 -23 -41 -27 -27 -68 -100 -92 -163 -5 -15 -14 -26 -20 -26 -5 0 -10 -7
-10 -15 0 -8 -7 -15 -15 -15 -8 0 -15 -5 -15 -11 0 -5 -4 -7 -10 -4 -5 3 -10
1 -10 -4 0 -6 4 -11 10 -11 17 0 120 52 120 61 0 5 9 9 21 9 11 0 17 4 14 10
-10 16 50 74 69 67 25 -10 19 -26 -6 -19 -21 5 -22 4 -8 -13 14 -16 13 -17 -8
-11 -24 8 -29 -3 -10 -22 9 -9 8 -12 -5 -12 -11 0 -17 -8 -17 -22 0 -17 -3
-19 -12 -10 -18 18 -30 14 -23 -8 7 -22 -5 -26 -23 -8 -9 9 -12 7 -12 -11 0
-18 -4 -21 -20 -16 -16 5 -19 3 -13 -11 5 -14 2 -16 -20 -10 -22 5 -25 3 -20
-11 4 -11 3 -14 -5 -9 -8 5 -10 2 -6 -9 5 -12 2 -14 -12 -8 -18 7 -18 6 -1
-20 9 -15 13 -27 7 -27 -6 0 -13 7 -16 15 -6 14 -34 22 -34 9 0 -3 9 -17 20
-31 11 -14 20 -30 20 -34 0 -14 -20 -10 -20 4 -1 17 -29 52 -36 44 -4 -3 3
-22 14 -42 12 -19 17 -35 13 -35 -5 0 -15 13 -23 30 -15 35 -43 52 -33 20 5
-15 3 -18 -9 -14 -9 3 -17 1 -17 -5 -4 -37 -20 -71 -33 -71 -7 0 -22 -9 -34
-20 -12 -12 -22 -16 -22 -10 0 5 -4 10 -10 10 -5 0 -7 -8 -3 -17 5 -14 3 -16
-7 -6 -9 8 -20 9 -38 2 -18 -7 -28 -6 -34 3 -6 10 -8 9 -8 -4 0 -10 -5 -15
-13 -12 -7 2 -33 -2 -57 -11 -41 -14 -46 -14 -56 0 -10 13 -12 13 -18 -7 l-6
-23 -15 25 c-12 21 -14 22 -15 6 0 -15 -3 -16 -14 -7 -9 8 -16 8 -20 2 -4 -6
-13 -8 -21 -4 -9 3 -15 -1 -15 -8 0 -8 -9 -3 -20 11 -11 14 -20 21 -19 15 5
-38 -17 -50 -24 -12 -4 18 -5 17 -6 -7 l-1 -28 -20 23 -19 24 -1 -22 c0 -13
-4 -23 -9 -23 -5 0 -11 10 -15 23 -4 16 -8 19 -14 9 -5 -7 -16 -10 -25 -6 -11
4 -17 1 -17 -9 0 -9 -5 -19 -12 -23 -8 -5 -9 -2 -4 11 12 31 -17 38 -31 7 -10
-21 -11 -22 -7 -4 4 18 1 22 -20 22 -13 0 -31 3 -40 6 -12 4 -16 0 -16 -15 0
-12 -5 -21 -11 -21 -6 0 -9 6 -6 14 3 8 0 17 -8 19 -17 7 -25 -1 -25 -25 0
-10 -5 -18 -11 -18 -6 0 -9 7 -5 15 6 17 -2 45 -14 45 -4 0 -10 -14 -14 -30
-15 -78 -37 -137 -51 -137 -16 0 -19 15 -9 42 6 13 9 14 16 3 7 -9 8 -1 4 22
-4 21 -3 30 3 22 16 -26 32 44 17 73 -13 24 -15 19 -45 -93 -33 -126 -39 -167
-17 -116 26 58 38 52 32 -18 -5 -58 -3 -59 10 0 2 13 8 20 13 17 10 -5 21 17
21 41 0 9 -5 12 -11 8 -7 -4 -10 -1 -7 7 3 8 11 13 17 12 6 -2 11 5 11 15 0
10 7 27 15 38 13 17 13 16 4 -16 -21 -71 -29 -106 -28 -135 l1 -30 7 30 c4 17
13 29 20 27 10 -2 12 6 7 33 -5 27 -3 37 9 41 8 3 15 13 15 22 0 8 3 13 6 10
3 -3 1 -23 -4 -44 -6 -22 -13 -61 -16 -89 -5 -42 -4 -46 6 -27 6 12 15 22 20
22 4 0 9 8 9 18 1 9 5 1 9 -18 l7 -35 2 30 c2 27 3 28 12 10 7 -16 8 -14 5 12
-3 20 0 36 9 43 12 10 15 9 15 -4 0 -9 -4 -16 -8 -16 -5 0 -7 -13 -4 -30 4
-25 7 -28 23 -19 10 5 19 6 19 2 0 -4 14 -8 30 -9 23 -1 30 3 30 18 0 27 23
17 25 -10 3 -37 15 -38 15 -1 0 24 3 30 9 20 7 -11 10 -10 14 5 2 10 5 1 6
-21 2 -35 4 -37 11 -17 10 24 30 30 30 10 0 -7 5 -5 11 5 13 22 29 13 30 -16
0 -21 1 -21 8 -2 5 11 7 23 5 27 -3 4 0 9 6 13 6 4 10 -4 10 -19 0 -14 5 -28
10 -31 6 -3 10 3 10 14 0 11 5 23 10 26 6 3 10 -3 10 -14 0 -12 5 -21 10 -21
6 0 10 9 10 20 0 31 20 24 21 -7 0 -25 2 -23 14 12 9 28 13 33 14 18 1 -29 21
-30 21 -2 0 11 5 17 10 14 6 -3 10 -15 10 -27 0 -17 3 -18 15 -8 12 10 16 8
24 -11 9 -22 10 -22 10 9 1 35 21 36 21 1 0 -11 4 -18 10 -14 5 3 7 12 4 20
-3 8 -2 20 2 27 6 9 12 0 21 -27 12 -38 13 -38 10 -7 -2 18 0 35 5 38 4 3 8
-4 8 -15 0 -10 3 -28 7 -38 6 -16 8 -15 14 7 l6 25 11 -25 c9 -22 11 -22 12
-5 1 20 1 20 15 1 15 -19 15 -19 15 5 l1 24 15 -25 15 -25 -4 27 c-5 35 -2 35
18 1 l16 -28 -5 30 -4 30 24 -29 c14 -15 28 -26 31 -22 3 3 -2 15 -12 26 -10
11 -13 20 -7 20 6 0 18 -10 27 -22 l17 -23 -7 25 -7 25 29 -27 c32 -31 55 -38
31 -10 -19 22 -32 72 -18 72 5 0 10 -7 10 -15 0 -9 7 -15 17 -13 10 2 25 -10
37 -29 12 -18 29 -32 38 -33 21 0 196 141 313 252 50 48 92 82 94 77 1 -6 -4
-18 -13 -28 -9 -10 -16 -23 -16 -29 0 -7 -4 -13 -10 -13 -5 -1 -16 -2 -22 -3
-7 -1 -13 -14 -13 -29 1 -24 -2 -27 -22 -22 -19 4 -23 0 -29 -31 -5 -25 -10
-32 -17 -25 -18 18 -30 12 -24 -12 7 -26 -7 -55 -17 -38 -4 6 -4 11 1 11 4 0
1 5 -7 10 -12 7 -16 4 -20 -18 -4 -21 -10 -26 -28 -24 -16 2 -22 -2 -22 -16 0
-26 -10 -33 -31 -21 -16 8 -19 6 -19 -16 0 -22 4 -25 38 -25 21 0 43 5 50 12
7 7 12 9 12 4 0 -4 11 4 24 18 13 15 28 26 34 26 5 0 13 11 16 25 4 14 13 25
21 25 16 0 74 58 75 73 0 5 13 21 30 37 32 30 41 26 55 -20 6 -20 5 -23 -6
-13 -17 17 -37 17 -21 1 16 -16 15 -80 -2 -114 -8 -15 -12 -32 -9 -37 3 -6 1
-7 -4 -4 -9 6 -23 -12 -23 -29 0 -2 817 -4 1815 -4 998 0 1815 3 1815 6 0 3
-20 32 -45 64 -25 32 -45 61 -45 64 0 3 -16 21 -35 40 -19 20 -35 38 -35 40 0
7 -146 153 -195 195 -22 19 -69 61 -105 95 -36 34 -88 80 -115 103 -28 23 -61
51 -75 63 -80 70 -268 203 -360 254 -36 19 -76 42 -90 50 -49 28 -427 206
-437 206 -3 0 -34 13 -69 30 -35 16 -102 46 -149 66 -47 20 -88 40 -91 45 -3
5 -11 9 -19 9 -7 0 -78 31 -157 69 -79 38 -165 79 -193 91 -341 152 -351 159
-370 230 -4 14 -13 39 -20 55 -7 17 -21 55 -30 85 -9 30 -21 65 -26 78 -5 12
-14 34 -20 50 -6 15 -15 35 -20 44 -5 10 -9 22 -9 28 0 22 -135 309 -192 409
-105 182 -247 390 -329 481 -43 49 -79 93 -79 98 0 5 25 64 56 133 98 214 154
388 175 539 5 36 12 82 15 103 4 23 2 43 -6 52 -10 12 -10 15 3 15 15 0 27 28
27 65 0 15 -2 17 -9 6 -5 -7 -14 -10 -20 -7 -6 4 -11 3 -11 -3 0 -5 5 -13 10
-16 17 -10 11 -27 -7 -23 -14 3 -17 11 -15 41 2 20 -1 37 -6 37 -5 0 -10 -6
-9 -12 0 -7 -1 -24 -2 -38 l-3 -25 -8 25 c-4 14 -5 35 -3 48 4 16 1 22 -11 22
-15 0 -21 16 -18 53 1 9 -3 17 -8 17 -6 0 -10 -4 -10 -10 0 -5 -5 -10 -11 -10
-15 0 -36 -23 -40 -45 -6 -28 -23 -28 -54 1 -19 18 -24 28 -16 33 7 5 9 15 5
26 -5 13 -4 16 4 11 17 -10 15 9 -2 23 -10 8 -16 9 -21 1z"/>
<path d="M3840 3635 c-30 -6 -77 -19 -105 -28 -174 -56 -217 -89 -266 -207
-36 -87 -57 -110 -127 -142 -127 -58 -143 -74 -201 -212 -12 -26 -61 -96 -109
-154 -215 -262 -268 -364 -348 -672 -31 -120 -52 -159 -95 -184 -56 -31 -157
-85 -274 -146 -143 -74 -278 -146 -335 -178 -25 -13 -90 -49 -145 -79 -55 -30
-104 -59 -110 -63 -5 -4 -26 -17 -45 -27 -19 -11 -62 -35 -95 -53 -33 -18 -73
-41 -90 -51 -16 -10 -46 -26 -65 -37 -85 -47 -160 -90 -205 -120 -11 -6 -29
-16 -40 -22 -11 -5 -41 -22 -67 -37 -75 -45 -160 -94 -208 -121 -25 -14 -62
-36 -82 -49 -21 -12 -42 -23 -48 -23 -5 0 -10 -4 -10 -9 0 -5 -8 -11 -17 -14
-19 -6 -112 -58 -173 -95 -19 -12 -42 -25 -50 -29 -8 -3 -28 -16 -45 -28 -16
-12 -37 -25 -45 -29 -38 -17 -234 -147 -238 -158 -2 -4 -8 -8 -14 -8 -10 0
-83 -53 -103 -74 -5 -6 -27 -22 -47 -36 l-38 -25 0 -262 0 -263 2360 0 c1468
0 2360 4 2360 9 0 6 -5 13 -11 16 -6 4 -8 13 -5 21 3 8 0 11 -8 8 -7 -3 -18 7
-26 21 -7 14 -17 25 -22 25 -4 0 -8 7 -8 16 0 8 5 12 10 9 6 -3 10 -1 10 4 0
6 -4 11 -9 11 -6 0 -9 8 -9 18 1 9 -3 35 -7 56 -6 28 -5 37 4 32 6 -4 11 -1
11 8 0 9 -8 16 -19 16 -11 0 -26 6 -33 13 -7 8 -19 12 -26 9 -6 -2 -12 4 -12
13 0 12 5 15 23 9 12 -3 24 -11 25 -15 2 -5 10 -9 19 -9 8 0 28 -9 44 -21 26
-18 29 -18 29 -4 0 12 5 15 16 11 9 -3 18 -6 20 -6 2 0 4 -5 4 -11 0 -5 -4 -8
-9 -5 -5 3 -11 -1 -14 -9 -4 -10 -1 -12 11 -9 14 5 14 3 -2 -10 -10 -8 -23
-13 -27 -10 -5 3 -8 -10 -8 -28 1 -22 3 -26 6 -11 5 25 28 36 51 24 26 -14 70
-10 84 7 9 11 10 16 2 19 -6 2 -20 10 -30 18 -18 13 -18 14 6 9 21 -4 22 -3 5
5 -11 5 -25 5 -31 0 -14 -11 -24 -1 -17 17 3 9 -2 14 -18 15 -13 0 -18 3 -11
6 16 6 16 23 -1 23 -8 0 -24 11 -37 25 -18 19 -27 22 -42 14 -14 -7 -20 -6
-24 6 -3 8 -14 15 -24 15 -13 0 -16 6 -12 26 4 24 2 26 -21 22 -20 -4 -27 0
-31 18 -4 14 -11 21 -20 18 -16 -6 -46 21 -46 42 0 8 -3 14 -7 15 -28 3 -42
11 -77 43 -21 20 -36 39 -34 41 2 3 31 -15 64 -39 32 -24 73 -52 90 -62 17
-11 60 -39 95 -64 35 -25 80 -53 99 -63 19 -10 51 -32 71 -47 41 -32 89 -49
89 -31 0 6 -7 11 -15 11 -9 0 -18 7 -21 15 -4 8 -11 12 -16 9 -15 -9 -29 18
-21 41 5 18 4 18 -11 6 -15 -13 -19 -13 -27 0 -5 8 -9 20 -9 28 0 10 -3 11
-13 3 -18 -16 -39 1 -31 24 7 18 7 18 -13 1 -21 -18 -21 -18 -28 2 -3 12 -3
25 0 31 9 14 -9 12 -23 -2 -10 -10 -14 -8 -18 10 -7 23 -24 31 -24 10 0 -8 -7
-6 -17 5 -15 14 -16 21 -5 37 16 27 5 25 -18 -2 l-17 -22 -7 22 c-4 12 -4 26
-1 32 9 14 -8 13 -23 -2 -9 -9 -12 -9 -12 1 0 7 -4 9 -10 6 -13 -8 -13 11 1
38 10 22 10 22 -10 -1 -10 -12 -21 -22 -24 -22 -12 0 -16 33 -6 52 6 11 8 22
5 25 -3 3 -11 -6 -17 -21 -7 -14 -16 -26 -20 -26 -16 0 -19 34 -4 50 9 10 15
24 13 31 -2 9 7 15 25 17 15 2 27 8 27 13 0 6 -4 7 -10 4 -17 -11 -11 11 11
39 12 15 19 29 16 32 -3 3 -19 -15 -37 -40 -18 -25 -39 -47 -47 -50 -8 -3 -11
-10 -8 -16 3 -5 1 -10 -4 -10 -6 0 -11 -7 -11 -15 0 -20 -16 -19 -24 2 -5 11
-1 22 10 30 13 10 15 16 7 24 -8 8 -17 5 -32 -10 -12 -12 -21 -16 -21 -11 0 6
11 20 25 32 17 15 23 28 19 42 -4 15 -3 17 4 7 6 -8 15 -10 23 -6 8 5 6 -1 -4
-12 -9 -11 -14 -23 -10 -26 3 -4 12 2 20 13 15 22 38 28 28 8 -4 -7 3 -2 14
11 12 13 19 26 16 30 -3 3 -10 -1 -15 -9 -6 -8 -10 -11 -10 -7 0 10 12 27 105
144 36 45 60 80 53 77 -7 -3 -33 -30 -57 -60 -25 -29 -48 -49 -51 -43 -4 6
-12 4 -20 -6 -11 -13 -10 -14 6 -8 15 6 15 2 -6 -28 -25 -37 -60 -74 -60 -64
0 4 12 23 27 43 l27 37 -28 -25 -29 -25 12 23 c7 13 27 40 45 60 18 21 47 57
65 82 l33 45 -43 -46 c-24 -25 -66 -70 -92 -100 -30 -32 -42 -42 -31 -24 l17
30 -28 -25 -28 -25 19 33 c10 18 24 30 31 28 6 -3 17 3 25 12 12 15 11 16 -4
3 -28 -21 -21 0 12 39 68 79 91 110 78 104 -7 -3 -44 -43 -83 -90 -38 -47 -77
-91 -85 -97 -17 -14 -17 -14 39 63 l33 45 -46 -47 c-25 -26 -46 -44 -46 -41 0
2 36 49 80 104 86 106 107 140 38 62 -112 -125 -125 -136 -131 -120 -4 10 18
45 64 101 38 47 69 89 69 92 0 9 -44 -38 -95 -100 -21 -26 -41 -43 -43 -37 -3
9 -8 8 -20 -1 -13 -11 -14 -10 -4 9 15 28 34 40 25 16 -6 -16 -5 -16 11 -4 13
11 14 16 4 22 -9 6 3 25 40 68 29 32 52 62 52 66 0 11 -29 -18 -87 -88 -36
-44 -59 -64 -63 -56 -5 7 -13 8 -21 4 -16 -9 -11 -3 70 92 29 35 49 63 43 63
-5 0 -37 -32 -71 -71 -64 -74 -80 -84 -34 -21 l27 37 -34 -30 c-39 -35 -27
-15 43 67 26 32 45 58 42 58 -4 0 -32 -26 -62 -58 -37 -37 -50 -47 -38 -27
l18 30 -32 -29 c-48 -46 -37 -23 25 50 31 37 50 64 43 62 -8 -3 -37 -32 -66
-66 -38 -44 -53 -56 -56 -44 -3 18 40 87 79 123 13 12 24 27 24 33 0 5 -15 -4
-32 -21 -18 -17 -39 -28 -45 -26 -7 3 -13 0 -13 -7 0 -6 5 -8 10 -5 6 3 10 2
10 -4 0 -14 -18 -23 -22 -12 -1 5 -12 3 -23 -5 -16 -12 -17 -16 -6 -23 8 -5 9
-11 3 -15 -5 -3 -13 1 -16 11 -4 10 10 35 44 74 64 74 52 78 -15 6 -27 -29
-45 -46 -39 -38 24 35 25 41 7 34 -11 -4 0 14 25 45 54 65 47 67 -13 5 -25
-26 -43 -38 -39 -27 6 16 3 15 -21 -6 l-29 -25 21 30 c12 17 31 39 43 50 12
11 27 29 32 40 9 17 7 17 -15 -4 -14 -12 -30 -20 -35 -17 -5 3 -16 -2 -23 -12
-13 -15 -12 -16 4 -3 24 19 21 -2 -3 -24 -20 -18 -21 -18 -14 0 5 13 4 16 -5
10 -10 -6 -11 -3 -2 13 6 12 15 24 21 27 5 3 19 20 31 38 l23 32 -25 -20 c-13
-11 -31 -28 -40 -39 -14 -16 -59 -31 -59 -19 0 2 21 26 46 53 52 55 49 69 -3
18 -48 -46 -90 -46 -45 0 9 10 28 32 42 48 l25 29 -30 -25 c-16 -14 -35 -31
-41 -39 -6 -8 -21 -15 -32 -16 -25 -2 -21 6 37 68 46 49 33 48 -20 -3 -43 -40
-62 -53 -39 -25 11 13 10 14 -6 9 -12 -4 -4 9 20 34 22 23 37 44 34 47 -3 3
-11 -1 -17 -9 -7 -8 -19 -12 -27 -9 -13 5 -12 8 2 24 13 14 14 19 4 19 -8 0
-27 -15 -43 -32 -18 -21 -26 -26 -23 -14 6 16 4 17 -9 6 -13 -11 -14 -10 -9 4
6 14 -5 21 -28 17 -18 -3 -6 19 22 39 33 23 39 40 14 40 -8 0 -13 -4 -10 -8 6
-10 -33 -46 -42 -38 -3 3 -12 0 -21 -6 -9 -7 5 11 32 39 26 29 47 54 47 57 0
12 -31 -8 -41 -25 -5 -11 -15 -16 -21 -13 -6 4 -8 3 -5 -3 9 -14 -29 -47 -43
-38 -15 9 8 37 24 28 6 -3 8 -2 3 2 -4 5 10 26 30 48 25 26 30 36 16 28 -12
-6 -23 -14 -25 -18 -4 -10 -65 -53 -74 -53 -4 0 5 9 20 21 14 11 24 24 21 29
-3 5 5 16 17 26 17 12 18 15 5 10 -10 -3 -25 -6 -33 -6 -9 0 -13 -4 -10 -9 3
-5 -5 -16 -19 -25 -44 -29 -29 -3 35 61 l35 35 -30 -15 c-16 -9 -40 -25 -52
-36 -14 -13 -24 -17 -28 -10 -4 6 2 13 14 16 11 3 18 9 15 14 -3 5 5 18 18 29
13 11 18 19 11 20 -6 0 -15 -5 -18 -11 -4 -6 -14 -8 -22 -5 -8 3 -12 2 -9 -3
3 -5 -1 -14 -8 -20 -10 -8 -16 -9 -21 -1 -3 5 1 10 10 10 9 0 14 4 10 9 -3 5
6 18 20 29 30 24 33 37 6 22 -26 -13 -36 3 -15 24 18 18 11 21 -16 6 -13 -7
-21 -7 -25 0 -3 6 1 13 9 16 9 3 16 11 16 16 0 6 -7 5 -15 -2 -20 -17 -29 -7
-16 18 9 17 8 19 -9 15 -22 -6 -26 7 -8 25 15 15 3 15 -25 1 -18 -9 -20 -9 -9
2 20 21 15 38 -10 31 -21 -5 -22 -4 -8 13 14 17 13 18 -7 13 -23 -6 -32 6 -13
17 19 11 10 23 -12 17 -21 -5 -22 -4 -9 11 12 15 11 17 -4 17 -14 0 -15 3 -5
15 10 12 10 15 -3 15 -11 0 -14 5 -10 17 5 12 2 15 -10 10 -9 -3 -17 -2 -17 3
0 6 5 10 10 10 6 0 10 5 10 10 0 6 -7 10 -15 10 -12 0 -19 16 -14 33 0 1 -4
14 -10 30 -7 18 -7 27 0 27 6 0 6 6 -1 19 -7 14 -6 21 3 24 9 4 9 6 0 6 -7 1
-13 11 -13 22 0 18 2 19 15 9 12 -10 15 -9 17 6 0 11 2 24 2 31 1 6 9 20 19
30 9 11 17 27 17 35 0 21 29 101 38 108 5 3 17 23 28 45 41 81 79 150 84 155
3 3 6 10 7 15 0 6 13 51 28 100 83 282 124 430 130 470 1 11 5 27 8 35 22 63
38 281 20 279 -5 -1 -33 -7 -63 -14z"/>
<path d="M7144 3587 c-4 -12 -14 -16 -35 -12 -16 3 -29 2 -29 -3 0 -10 -82 -2
-97 10 -10 8 -55 3 -75 -9 -4 -2 -47 -5 -96 -7 -57 -2 -100 -9 -122 -19 -18
-10 -46 -17 -61 -17 -18 0 -32 -7 -40 -21 -7 -14 -17 -19 -30 -16 -10 3 -21 1
-24 -3 -3 -5 -19 -5 -36 0 -36 11 -74 -7 -58 -26 6 -8 3 -13 -11 -17 -11 -3
-18 -2 -16 2 3 4 1 13 -5 21 -6 11 -9 12 -9 2 0 -7 -5 -10 -10 -7 -6 4 -17 2
-25 -5 -10 -8 -19 -8 -33 -1 -11 6 -35 8 -55 4 -21 -3 -50 0 -67 7 -22 9 -34
10 -43 1 -8 -6 -16 -9 -18 -6 -3 2 -32 5 -66 7 -51 2 -59 5 -56 19 5 19 -19
39 -25 21 -5 -16 -23 -15 -58 3 -23 11 -43 12 -91 5 -34 -4 -80 -6 -103 -3
-37 5 -144 -20 -160 -37 -3 -3 -24 -14 -48 -24 -23 -11 -41 -24 -39 -30 5 -12
52 -10 82 4 95 44 260 60 380 37 44 -9 103 -19 130 -22 28 -4 68 -15 90 -25
25 -11 77 -21 140 -25 172 -11 295 -13 301 -4 3 5 24 9 47 9 23 0 58 5 77 10
28 8 37 7 46 -5 9 -13 13 -13 17 -3 4 10 8 10 16 -2 10 -13 13 -13 25 3 9 12
16 15 21 7 5 -8 11 -8 21 1 7 6 24 9 36 6 14 -4 43 4 73 18 61 30 72 30 110 5
56 -37 101 -18 74 31 -6 12 -13 43 -15 67 -3 50 -19 76 -30 49z"/>
</g>
</svg>
